<mxfile host="65bd71144e">
    <diagram id="5nBZ2FTXbqMqxbVpYw_j" name="Page-1">
        <mxGraphModel dx="784" dy="611" grid="1" gridSize="10" guides="1" tooltips="1" connect="1" arrows="1" fold="1" page="1" pageScale="1" pageWidth="850" pageHeight="1100" math="0" shadow="0">
            <root>
                <mxCell id="0"/>
                <mxCell id="1" parent="0"/>
                <mxCell id="3" value="MPI application" style="rounded=0;whiteSpace=wrap;html=1;fillColor=#dae8fc;strokeColor=#6c8ebf;" vertex="1" parent="1">
                    <mxGeometry x="100" y="370" width="340" height="30" as="geometry"/>
                </mxCell>
                <mxCell id="6" value="Open Protability Access Layer(OPAL)" style="rounded=0;whiteSpace=wrap;html=1;fillColor=#d5e8d4;strokeColor=#82b366;" vertex="1" parent="1">
                    <mxGeometry x="100" y="460" width="300" height="30" as="geometry"/>
                </mxCell>
                <mxCell id="8" value="" style="shape=corner;whiteSpace=wrap;html=1;direction=south;dx=30;dy=20;fillColor=#d5e8d4;strokeColor=#82b366;" vertex="1" parent="1">
                    <mxGeometry x="100" y="400" width="340" height="120" as="geometry"/>
                </mxCell>
                <mxCell id="9" value="" style="shape=corner;whiteSpace=wrap;html=1;direction=south;dx=30;dy=20;fillColor=#d5e8d4;strokeColor=#82b366;" vertex="1" parent="1">
                    <mxGeometry x="100" y="430" width="320" height="60" as="geometry"/>
                </mxCell>
                <mxCell id="10" value="&lt;span style=&quot;color: rgb(0, 0, 0);&quot;&gt;Open MPI Run-Time Environment(ORTE)&lt;/span&gt;" style="text;html=1;align=center;verticalAlign=middle;whiteSpace=wrap;rounded=0;fillColor=none;strokeColor=none;" vertex="1" parent="1">
                    <mxGeometry x="100" y="430" width="320" height="30" as="geometry"/>
                </mxCell>
                <mxCell id="11" value="&lt;span style=&quot;color: rgb(0, 0, 0); font-family: Helvetica; font-size: 12px; font-style: normal; font-variant-ligatures: normal; font-variant-caps: normal; font-weight: 400; letter-spacing: normal; orphans: 2; text-align: center; text-indent: 0px; text-transform: none; widows: 2; word-spacing: 0px; -webkit-text-stroke-width: 0px; white-space: normal; text-decoration-thickness: initial; text-decoration-style: initial; text-decoration-color: initial; float: none; display: inline !important;&quot;&gt;Open MPI(OMPI)&lt;/span&gt;" style="text;html=1;align=center;verticalAlign=middle;whiteSpace=wrap;rounded=0;fillColor=none;strokeColor=none;" vertex="1" parent="1">
                    <mxGeometry x="100" y="400" width="340" height="30" as="geometry"/>
                </mxCell>
                <mxCell id="13" value="Hardware" style="rounded=0;whiteSpace=wrap;html=1;fillColor=#f8cecc;strokeColor=#b85450;" vertex="1" parent="1">
                    <mxGeometry x="100" y="520" width="340" height="30" as="geometry"/>
                </mxCell>
                <mxCell id="5" value="Operating system(OS)" style="rounded=0;whiteSpace=wrap;html=1;fillColor=#ffe6cc;strokeColor=#d79b00;" vertex="1" parent="1">
                    <mxGeometry x="100" y="490" width="320" height="30" as="geometry"/>
                </mxCell>
                <mxCell id="16" value="" style="shape=singleArrow;direction=south;whiteSpace=wrap;html=1;arrowWidth=0.5061221168154778;arrowSize=0.10292968750000048;" vertex="1" parent="1">
                    <mxGeometry x="107" y="390" width="30" height="140" as="geometry"/>
                </mxCell>
                <mxCell id="17" value="MPI application" style="rounded=0;whiteSpace=wrap;html=1;fillColor=#dae8fc;strokeColor=#6c8ebf;" vertex="1" parent="1">
                    <mxGeometry x="450" y="370" width="340" height="30" as="geometry"/>
                </mxCell>
                <mxCell id="18" value="Open MPI core" style="rounded=0;whiteSpace=wrap;html=1;fillColor=#d5e8d4;strokeColor=#82b366;" vertex="1" parent="1">
                    <mxGeometry x="450" y="400" width="340" height="30" as="geometry"/>
                </mxCell>
                <mxCell id="19" value="Modular Component Architecture(MCA)" style="rounded=0;whiteSpace=wrap;html=1;fillColor=#fff2cc;strokeColor=#d6b656;" vertex="1" parent="1">
                    <mxGeometry x="450" y="430" width="340" height="30" as="geometry"/>
                </mxCell>
                <mxCell id="20" value="btl" style="rounded=0;whiteSpace=wrap;html=1;fillColor=#fff2cc;strokeColor=#d6b656;" vertex="1" parent="1">
                    <mxGeometry x="590" y="460" width="40" height="30" as="geometry"/>
                </mxCell>
                <mxCell id="21" value="coll" style="rounded=0;whiteSpace=wrap;html=1;fillColor=#fff2cc;strokeColor=#d6b656;" vertex="1" parent="1">
                    <mxGeometry x="630" y="460" width="40" height="30" as="geometry"/>
                </mxCell>
                <mxCell id="22" value="plm" style="rounded=0;whiteSpace=wrap;html=1;fillColor=#fff2cc;strokeColor=#d6b656;" vertex="1" parent="1">
                    <mxGeometry x="670" y="460" width="40" height="30" as="geometry"/>
                </mxCell>
                <mxCell id="23" value="mtl" style="rounded=0;whiteSpace=wrap;html=1;fillColor=#fff2cc;strokeColor=#d6b656;" vertex="1" parent="1">
                    <mxGeometry x="710" y="460" width="40" height="30" as="geometry"/>
                </mxCell>
                <mxCell id="24" value="pml" style="rounded=0;whiteSpace=wrap;html=1;fillColor=#fff2cc;strokeColor=#d6b656;" vertex="1" parent="1">
                    <mxGeometry x="750" y="460" width="40" height="30" as="geometry"/>
                </mxCell>
                <mxCell id="30" value="" style="endArrow=none;dashed=1;html=1;dashPattern=1 3;strokeWidth=2;fillColor=#fff2cc;strokeColor=#d6b656;" edge="1" parent="1">
                    <mxGeometry width="50" height="50" relative="1" as="geometry">
                        <mxPoint x="530" y="474.81" as="sourcePoint"/>
                        <mxPoint x="580" y="475" as="targetPoint"/>
                        <Array as="points">
                            <mxPoint x="547" y="474.81"/>
                        </Array>
                    </mxGeometry>
                </mxCell>
                <mxCell id="33" value="basic" style="rounded=0;whiteSpace=wrap;html=1;rotation=270;fontSize=6;fillColor=#f5f5f5;fontColor=#333333;strokeColor=#666666;" vertex="1" parent="1">
                    <mxGeometry x="605" y="515" width="60" height="10" as="geometry"/>
                </mxCell>
                <mxCell id="34" value="rsh / ssh" style="rounded=0;whiteSpace=wrap;html=1;rotation=270;fontSize=6;fillColor=#f5f5f5;fontColor=#333333;strokeColor=#666666;" vertex="1" parent="1">
                    <mxGeometry x="645" y="515" width="60" height="10" as="geometry"/>
                </mxCell>
                <mxCell id="36" value="ob1" style="rounded=0;whiteSpace=wrap;html=1;rotation=270;fontSize=6;fillColor=#f5f5f5;fontColor=#333333;strokeColor=#666666;" vertex="1" parent="1">
                    <mxGeometry x="725" y="515" width="60" height="10" as="geometry"/>
                </mxCell>
                <mxCell id="39" value="slurm" style="rounded=0;whiteSpace=wrap;html=1;rotation=270;fontSize=6;fillColor=#f5f5f5;fontColor=#333333;strokeColor=#666666;" vertex="1" parent="1">
                    <mxGeometry x="655" y="515" width="60" height="10" as="geometry"/>
                </mxCell>
                <mxCell id="40" value="tcp" style="rounded=0;whiteSpace=wrap;html=1;rotation=270;fontSize=6;fillColor=#f5f5f5;fontColor=#333333;strokeColor=#666666;" vertex="1" parent="1">
                    <mxGeometry x="565" y="515" width="60" height="10" as="geometry"/>
                </mxCell>
                <mxCell id="41" value="Framework" style="rounded=0;whiteSpace=wrap;html=1;fillColor=#fff2cc;strokeColor=#d6b656;" vertex="1" parent="1">
                    <mxGeometry x="450" y="460" width="70" height="30" as="geometry"/>
                </mxCell>
                <mxCell id="42" value="Component" style="rounded=0;whiteSpace=wrap;html=1;rotation=270;fontSize=6;fillColor=#f5f5f5;fontColor=#333333;strokeColor=#666666;" vertex="1" parent="1">
                    <mxGeometry x="425" y="515" width="60" height="10" as="geometry"/>
                </mxCell>
                <mxCell id="43" value="openib" style="rounded=0;whiteSpace=wrap;html=1;rotation=270;fontSize=6;fillColor=#f5f5f5;fontColor=#333333;strokeColor=#666666;" vertex="1" parent="1">
                    <mxGeometry x="575" y="515" width="60" height="10" as="geometry"/>
                </mxCell>
                <mxCell id="44" value="ucx" style="rounded=0;whiteSpace=wrap;html=1;rotation=270;fontSize=6;fillColor=#f5f5f5;fontColor=#333333;strokeColor=#666666;" vertex="1" parent="1">
                    <mxGeometry x="735" y="515" width="60" height="10" as="geometry"/>
                </mxCell>
            </root>
        </mxGraphModel>
    </diagram>
</mxfile>
